<svg xmlns="http://www.w3.org/2000/svg" width="1280" height="720" viewBox="0 0 1280 720"><path fill="#828487" d="M0 0h1280v720H0z"/><path fill="#c4c6c8" d="M0 0h1280v540H0z"/><path fill="#9d9fa2" d="M0 0h1280v180H0z"/><path fill="#a9abae" d="M0 360h1280v180H0z"/><path fill="#ee3354" d="M367.7 379.3l-12.5-38.4h5.4l5.9 18.9a146.7 146.7 0 0 1 4.1 14.4h.2c1-4.5 2.6-9.3 4.3-14.4l6.5-18.9h5.3l-13.7 38.4zm27.9-35.4a3 3 0 0 1-3.2 3.1 3.1 3.1 0 0 1 .1-6.2 3 3 0 0 1 3.1 3.1zm-5.6 35.4v-27.6h5v27.6zm37.2-40.5v33.4c0 2.4 0 5.2.2 7.1h-4.5l-.2-4.8h-.1a10.2 10.2 0 0 1-9.4 5.4c-6.7 0-11.8-5.6-11.8-14s5.6-14.8 12.3-14.8c4.3 0 7.1 2 8.4 4.2h.1v-16.5zm-5 24.1a7.6 7.6 0 0 0-.3-2.1 7.2 7.2 0 0 0-7.2-5.8c-5.2 0-8.3 4.6-8.3 10.7s2.8 10.2 8.2 10.2a7.5 7.5 0 0 0 7.3-6 7.8 7.8 0 0 0 .3-2.2zm16.1 3.5c.1 6.8 4.5 9.6 9.5 9.6a19.7 19.7 0 0 0 7.6-1.4l.9 3.5a22.2 22.2 0 0 1-9.2 1.8c-8.5 0-13.6-5.6-13.6-14s4.9-14.8 13-14.8 11.4 7.9 11.4 13c0 1-.2 1.8-.2 2.3zm14.7-3.6c.1-3.2-1.3-8.1-6.9-8.1s-7.3 4.6-7.7 8.1zm36 2.5c0 10.2-7 14.6-13.7 14.6s-13.2-5.5-13.2-14.2 6-14.6 13.7-14.6 13.2 5.7 13.2 14.2zm-21.8.2c0 6.1 3.4 10.6 8.3 10.6s8.4-4.5 8.4-10.7c0-4.6-2.3-10.6-8.3-10.6s-8.4 5.5-8.4 10.7zm40.8 13.8v-23.8h-3.9v-3.8h3.9v-1.3c0-3.9.8-7.4 3.2-9.7a9.5 9.5 0 0 1 6.7-2.5 11.7 11.7 0 0 1 4.3.8l-.7 3.9a6.9 6.9 0 0 0-3.2-.7c-4.3 0-5.4 3.8-5.4 8v1.5h6.7v3.8h-6.7v23.8zm18.2-12.9c.1 6.8 4.4 9.6 9.4 9.6a20.3 20.3 0 0 0 7.7-1.4l.8 3.5a22.2 22.2 0 0 1-9.2 1.8c-8.5 0-13.5-5.6-13.5-14s4.9-14.8 12.9-14.8 11.4 7.9 11.4 13a12.1 12.1 0 0 1-.2 2.3zm14.7-3.6c0-3.2-1.3-8.1-7-8.1s-7.3 4.6-7.7 8.1zm13.8 3.6c.1 6.8 4.5 9.6 9.5 9.6a19.7 19.7 0 0 0 7.6-1.4l.9 3.5a22.2 22.2 0 0 1-9.2 1.8c-8.5 0-13.6-5.6-13.6-14s4.9-14.8 13-14.8 11.4 7.9 11.4 13a12.1 12.1 0 0 1-.2 2.3zm14.7-3.6c.1-3.2-1.3-8.1-6.9-8.1s-7.3 4.6-7.7 8.1zm34.9-24v33.4c0 2.4.1 5.2.2 7.1H600l-.2-4.8h-.1a10.1 10.1 0 0 1-9.4 5.4c-6.7 0-11.8-5.6-11.8-14s5.6-14.8 12.4-14.8c4.2 0 7 2 8.3 4.2h.1v-16.5zm-5 24.1a14.9 14.9 0 0 0-.2-2.1 7.4 7.4 0 0 0-7.3-5.8c-5.2 0-8.2 4.6-8.2 10.7s2.7 10.2 8.1 10.2a7.6 7.6 0 0 0 7.4-6 15 15 0 0 0 .2-2.2zm25.4-3.7c0-2.9 0-5.2-.2-7.5h4.4l.3 4.6h.1a10.1 10.1 0 0 1 9.2-5.2c3.8 0 9.7 2.2 9.7 11.7v16.5h-5v-15.9c0-4.5-1.7-8.2-6.4-8.2a7.1 7.1 0 0 0-6.7 5.2 5.3 5.3 0 0 0-.4 2.3v16.6h-5zm56.6 6.1c0 10.2-7 14.6-13.7 14.6s-13.2-5.5-13.2-14.2 6-14.6 13.6-14.6 13.3 5.7 13.3 14.2zm-21.9.2c0 6.1 3.5 10.6 8.4 10.6s8.4-4.5 8.4-10.7c0-4.6-2.3-10.6-8.3-10.6s-8.5 5.5-8.5 10.7zm34.3-21.7v7.9h7.2v3.8h-7.2v14.9c0 3.4 1 5.3 3.8 5.3a10.7 10.7 0 0 0 2.9-.3l.2 3.8a12.4 12.4 0 0 1-4.5.7 6.9 6.9 0 0 1-5.4-2.2c-1.4-1.4-1.9-3.9-1.9-7.1v-15.1h-4.3v-3.8h4.3v-6.6zm25.4 35.5v-23.8h-3.9v-3.8h3.9v-1.3c0-3.9.9-7.4 3.2-9.7a9.7 9.7 0 0 1 6.7-2.5 11.7 11.7 0 0 1 4.3.8l-.7 3.9a6.3 6.3 0 0 0-3.2-.7c-4.2 0-5.3 3.8-5.3 8v1.5h6.7v3.8h-6.7v23.8zm40.4-14c0 10.2-7.1 14.6-13.8 14.6s-13.2-5.5-13.2-14.2 6.1-14.6 13.7-14.6 13.3 5.7 13.3 14.2zm-21.9.2c0 6.1 3.5 10.6 8.4 10.6s8.4-4.5 8.4-10.7c0-4.6-2.4-10.6-8.3-10.6s-8.5 5.5-8.5 10.7zm51.3 6.3c0 2.8.1 5.3.2 7.5h-4.4l-.3-4.5h-.1a10.4 10.4 0 0 1-9.1 5.1c-4.4 0-9.6-2.4-9.6-12.1v-16.1h5.1V367c0 5.2 1.6 8.7 6.1 8.7a7.2 7.2 0 0 0 6.6-4.5 7.5 7.5 0 0 0 .5-2.6v-16.9h5zm8.3-12.6c0-2.9 0-5.2-.2-7.5h4.4l.3 4.6h.1a10.1 10.1 0 0 1 9.2-5.2c3.8 0 9.7 2.2 9.7 11.7v16.5h-5v-15.9c0-4.5-1.7-8.2-6.4-8.2a7.1 7.1 0 0 0-6.7 5.2 7.3 7.3 0 0 0-.4 2.3v16.6h-5zm55.5-20.4v33.4c0 2.4 0 5.2.2 7.1h-4.5l-.2-4.8h-.1a10.2 10.2 0 0 1-9.4 5.4c-6.7 0-11.8-5.6-11.8-14s5.6-14.8 12.3-14.8c4.3 0 7.1 2 8.4 4.2h.1v-16.5zm-5 24.1a7.6 7.6 0 0 0-.3-2.1 7.2 7.2 0 0 0-7.2-5.8c-5.2 0-8.3 4.6-8.3 10.7s2.8 10.2 8.2 10.2a7.5 7.5 0 0 0 7.3-6 7.8 7.8 0 0 0 .3-2.2z"/></svg>